<?xml version="1.0" standalone="no"?>
<!DOCTYPE svg PUBLIC "-//W3C//DTD SVG 20010904//EN"
 "http://www.w3.org/TR/2001/REC-SVG-20010904/DTD/svg10.dtd">
<svg version="1.0" xmlns="http://www.w3.org/2000/svg"
 width="399.000000pt" height="222.000000pt" viewBox="0 0 399.000000 222.000000"
 preserveAspectRatio="xMidYMid meet">

<g transform="translate(0.000000,222.000000) scale(0.100000,-0.100000)"
fill="#000000" stroke="none">
<path d="M770 1930 c-8 -5 -27 -10 -42 -10 -15 0 -29 -4 -32 -9 -3 -5 -18 -12
-33 -16 -55 -13 -283 -193 -283 -223 0 -4 -14 -23 -30 -42 -16 -19 -30 -38
-30 -42 0 -4 -6 -13 -13 -20 -18 -19 -97 -177 -97 -194 0 -8 -4 -14 -10 -14
-5 0 -10 -11 -10 -25 0 -14 -4 -25 -10 -25 -5 0 -10 -9 -10 -20 0 -10 -7 -40
-16 -66 -11 -32 -16 -84 -16 -168 0 -112 2 -125 26 -171 46 -87 111 -125 220
-125 83 0 139 18 246 81 13 8 60 48 103 90 61 58 78 80 75 98 l-3 23 -25 -22
c-33 -29 -94 -60 -119 -60 -11 0 -23 -4 -26 -10 -8 -12 -142 -13 -149 -1 -3 4
-18 11 -34 14 -24 5 -65 38 -97 79 -47 59 -60 226 -28 353 10 39 21 72 26 73
4 2 7 12 7 22 0 10 4 21 9 24 5 3 12 17 15 32 7 27 55 107 69 112 4 2 7 8 7
13 0 19 105 114 156 142 71 37 146 38 189 1 29 -25 30 -27 30 -122 0 -90 -2
-100 -29 -142 -38 -59 -63 -80 -97 -80 -21 0 -29 6 -38 31 -9 25 -14 29 -33
23 -27 -8 -49 -35 -80 -93 -17 -32 -19 -46 -10 -49 6 -2 12 -10 12 -18 0 -52
174 32 249 119 9 11 28 33 43 50 15 18 35 48 45 67 10 19 20 37 23 40 13 13
28 49 35 80 3 19 11 49 17 66 15 42 -12 114 -49 132 -32 14 -132 16 -153 2z"/>
<path d="M2048 1740 c-16 -16 -28 -35 -28 -44 0 -8 -4 -17 -9 -20 -5 -4 -12
-30 -16 -59 -9 -78 -22 -104 -55 -111 -16 -3 -48 -14 -72 -24 -83 -37 -100
-42 -109 -37 -5 4 -9 39 -9 80 0 60 -3 74 -17 80 -23 8 -63 -37 -63 -70 0 -13
-4 -27 -10 -30 -5 -3 -10 -25 -10 -49 0 -58 -10 -66 -175 -131 -22 -9 -52 -21
-67 -28 -33 -14 -52 -49 -35 -66 16 -16 28 -14 83 14 27 14 55 25 62 25 6 0
12 5 12 10 0 6 9 10 19 10 11 0 23 5 26 10 3 6 17 10 30 10 l24 0 -6 -122 c-3
-68 -9 -127 -14 -132 -12 -13 -33 7 -48 47 -17 42 -57 67 -108 67 -42 0 -73
-23 -73 -52 0 -9 -12 -19 -27 -23 -28 -7 -103 -81 -103 -102 0 -7 -4 -13 -10
-13 -5 0 -10 -8 -10 -19 0 -41 -136 -59 -188 -25 -32 21 -61 55 -62 71 0 6 -5
13 -11 15 -18 6 -24 92 -7 109 16 17 41 69 58 124 7 22 17 49 21 60 26 61 47
333 29 375 -15 37 -57 41 -87 8 -42 -46 -103 -187 -103 -238 0 -17 -4 -30 -9
-30 -14 0 -23 -101 -27 -280 -4 -212 9 -267 78 -332 37 -36 43 -38 101 -37 43
0 71 6 92 20 17 10 37 22 45 26 8 4 21 13 29 21 12 11 16 9 28 -16 35 -72 101
-98 169 -66 44 20 149 124 160 157 8 26 52 69 63 62 5 -2 11 -31 13 -63 11
-119 76 -173 178 -149 28 6 50 15 50 19 0 5 6 8 13 8 6 0 27 14 46 30 47 41
61 39 61 -10 0 -25 5 -40 13 -40 11 0 87 74 87 85 0 3 10 16 23 29 25 25 38
19 51 -21 12 -36 69 -89 110 -101 42 -12 136 1 136 19 0 5 7 9 15 9 8 0 15 5
15 10 0 16 18 12 39 -9 28 -28 56 -41 87 -41 33 0 94 21 94 32 0 4 7 8 15 8 8
0 25 11 39 25 14 14 28 25 32 25 9 0 54 53 54 63 0 4 7 7 15 7 8 0 15 -7 15
-16 0 -36 34 -116 56 -130 33 -22 81 -3 121 50 94 121 123 139 123 76 0 -16 5
-32 10 -35 6 -3 10 -15 10 -26 0 -11 20 -40 45 -65 40 -39 50 -44 90 -44 25 0
45 5 45 10 0 6 8 10 18 10 10 0 29 11 42 25 28 30 34 31 60 5 14 -14 33 -20
65 -20 56 0 91 15 138 62 56 56 67 51 67 -28 0 -38 -5 -71 -12 -79 -30 -33
-38 -45 -38 -54 0 -5 -3 -11 -7 -13 -21 -9 -98 -154 -122 -229 -14 -44 -15
-156 -1 -164 6 -3 10 -14 10 -24 0 -27 42 -61 76 -61 33 0 65 24 80 60 31 73
36 107 41 303 l6 208 100 102 c80 81 97 103 82 106 -19 3 -87 -61 -145 -136
-14 -18 -28 -33 -32 -33 -12 0 -9 148 2 155 13 8 13 85 -1 85 -14 0 -32 -20
-46 -52 -7 -15 -29 -36 -50 -47 -38 -19 -39 -19 -66 1 -22 16 -27 27 -27 63 0
88 116 159 130 80 5 -25 10 -29 30 -27 27 3 70 44 70 66 0 30 -37 56 -79 56
-45 0 -121 -20 -121 -32 0 -5 -5 -8 -12 -8 -17 0 -114 -104 -129 -140 -8 -16
-17 -30 -21 -30 -5 0 -8 -11 -8 -24 0 -51 -53 -72 -100 -39 -49 34 -80 73
-119 148 -20 38 -27 43 -55 38 -14 -3 -32 -20 -45 -44 -59 -105 -114 -130
-145 -65 -9 19 -16 42 -16 51 0 18 -35 55 -52 55 -11 0 -108 -98 -108 -109 0
-5 -8 -11 -17 -15 -10 -3 -31 -14 -48 -25 -16 -11 -46 -20 -67 -20 -51 -1
-114 57 -128 120 -25 115 -26 118 -51 67 -28 -58 -39 -103 -39 -161 0 -56 0
-57 -29 -57 -39 0 -108 54 -135 105 -11 22 -24 42 -27 45 -4 3 -9 15 -13 28
-14 44 -60 17 -112 -64 -32 -50 -81 -97 -93 -90 -14 9 -15 192 -1 201 6 3 10
15 10 26 0 10 4 19 9 19 5 0 12 13 16 30 4 16 11 32 16 35 5 4 9 17 9 31 0 13
4 24 10 24 5 0 12 16 16 35 3 19 10 38 15 41 5 3 9 16 9 29 0 13 5 27 10 30 6
3 10 16 10 28 0 24 25 51 58 61 40 13 28 76 -14 76 -11 0 -14 16 -14 73 0 78
-9 97 -57 125 -30 16 -34 15 -65 -18z m46 -126 c3 -9 6 -27 6 -40 0 -19 -5
-24 -24 -24 -14 0 -28 -4 -31 -10 -3 -5 -10 -10 -16 -10 -14 0 -11 69 4 85 16
19 53 19 61 -1z m-1076 -16 c14 -14 17 -204 3 -212 -4 -3 -11 -33 -15 -66 -4
-33 -11 -60 -16 -60 -6 0 -10 -11 -10 -25 0 -14 -4 -25 -10 -25 -5 0 -10 -8
-10 -19 0 -10 -6 -24 -14 -30 -12 -10 -17 -8 -25 8 -14 25 -15 308 -1 316 6 3
10 19 10 34 0 44 28 91 54 91 12 0 27 -5 34 -12z m1072 -167 c0 -17 -4 -33
-10 -36 -5 -3 -10 -19 -10 -35 0 -16 -4 -31 -9 -35 -6 -3 -13 -26 -17 -50 -3
-25 -10 -45 -15 -45 -5 0 -9 -11 -9 -25 0 -14 -4 -25 -10 -25 -15 0 -13 247 3
265 6 8 27 14 45 15 29 0 32 -3 32 -29z m-124 -68 c-4 -38 -9 -147 -12 -243
-3 -96 -10 -179 -15 -184 -22 -23 -74 -32 -112 -19 -54 19 -72 32 -89 67 -44
90 -50 189 -18 274 11 29 20 61 20 71 0 29 26 50 71 57 21 4 39 10 39 15 0 5
13 9 29 9 17 0 33 5 36 10 3 6 18 10 31 10 26 0 26 0 20 -67z m-575 -313 c5 0
9 -5 9 -10 0 -28 63 -70 104 -70 34 0 33 -11 -4 -43 -29 -26 -80 -37 -80 -18
0 5 -8 12 -17 15 -42 14 -70 119 -40 150 10 12 13 11 15 -5 2 -10 8 -19 13
-19z m2306 -507 c-6 -155 -12 -183 -43 -183 -19 0 -24 7 -30 35 -8 44 4 183
17 191 5 3 9 12 9 19 0 17 30 55 43 55 4 0 6 -53 4 -117z"/>
<path d="M2468 1392 c-24 -14 -28 -23 -28 -65 0 -38 5 -53 23 -68 53 -44 113
-7 111 68 -1 36 -6 50 -25 64 -30 23 -46 23 -81 1z"/>
</g>
</svg>
